<?xml version="1.0" encoding="UTF-8" ?>
<!DOCTYPE svg PUBLIC "-//W3C//DTD SVG 1.1//EN" "http://www.w3.org/Graphics/SVG/1.1/DTD/svg11.dtd">
<svg width="19pt" height="19pt" viewBox="0 0 19 19" version="1.1" xmlns="http://www.w3.org/2000/svg">
<path fill="#6b6c68" d=" M 0.29 8.45 C 2.14 5.07 4.82 1.44 9.00 1.11 C 13.17 1.44 15.85 5.07 17.73 8.44 C 16.94 8.94 15.36 9.93 14.57 10.43 C 13.78 8.98 12.98 7.53 12.17 6.09 C 15.50 6.58 13.15 2.33 11.80 5.43 C 11.01 4.05 10.21 2.67 9.41 1.30 C 7.86 3.32 6.37 5.38 4.93 7.48 C 5.04 6.45 5.40 3.91 3.67 4.26 C 2.28 5.41 3.42 7.33 4.31 8.40 C 4.05 8.87 3.52 9.80 3.26 10.27 C 2.51 9.82 1.03 8.91 0.29 8.45 Z" />
<path fill="#c23b3b" d=" M 4.93 7.48 C 6.37 5.38 7.86 3.32 9.41 1.30 C 10.21 2.67 11.01 4.05 11.80 5.43 L 12.17 6.09 C 12.98 7.53 13.78 8.98 14.57 10.43 C 15.59 12.32 16.53 14.25 17.45 16.19 C 11.76 16.55 6.07 16.79 0.37 16.98 C 1.25 14.71 2.13 12.43 3.26 10.27 C 3.52 9.80 4.05 8.87 4.31 8.40 C 4.47 8.17 4.77 7.71 4.93 7.48 Z" />
<path fill="#fefcfc" d=" M 3.67 4.26 C 5.40 3.91 5.04 6.45 4.93 7.48 C 4.77 7.71 4.47 8.17 4.31 8.40 C 3.42 7.33 2.28 5.41 3.67 4.26 Z" />
<path fill="#fefcfc" d=" M 11.80 5.43 C 13.15 2.33 15.50 6.58 12.17 6.09 L 11.80 5.43 Z" />
<path fill="#fefcfc" d=" M 3.81 14.94 C 5.49 11.73 6.99 8.35 9.39 5.58 C 11.22 8.60 12.64 11.83 14.23 14.97 C 12.77 14.95 11.32 14.93 9.87 14.91 C 11.23 12.33 6.76 12.33 8.13 14.91 C 6.69 14.93 5.25 14.94 3.81 14.94 Z" />
<path fill="#6b6c68" d=" M 8.00 8.00 C 8.50 8.00 9.50 8.00 10.00 8.00 C 10.00 9.33 10.00 10.67 10.00 12.00 C 9.50 12.00 8.50 12.00 8.00 12.00 C 8.00 10.67 8.00 9.33 8.00 8.00 Z" />
<path fill="#6b6c68" d=" M 8.13 14.91 C 6.76 12.33 11.23 12.33 9.87 14.91 C 9.43 14.91 8.56 14.91 8.13 14.91 Z" />
</svg>
